<svg version="1.1" id="Layer_1" xmlns="http://www.w3.org/2000/svg" xmlns:xlink="http://www.w3.org/1999/xlink" x="0px" y="0px" viewBox="0 0 128 128" style="fill: rgb(0, 0, 0);" xml:space="preserve" width="100" height="100">

<g>
	<g>
		<path d="M96,9H32c-5.5,0-10,4.5-10,10v90c0,5.5,4.5,10,10,10h64c5.5,0,10-4.5,10-10V19C106,13.5,101.5,9,96,9z" style="fill:#FFFFFF;"/>
	</g>
	<g>
		<path d="M57,104.7c-0.8,0-1.6-0.3-2.1-0.9c-0.6-0.6-0.9-1.3-0.9-2.1c0-0.2,0-0.4,0.1-0.6c0-0.2,0.1-0.4,0.2-0.6&#10;&#9;&#9;&#9;c0.1-0.2,0.2-0.4,0.3-0.5c0.1-0.2,0.2-0.3,0.4-0.5c1.1-1.1,3.1-1.1,4.2,0c0.1,0.1,0.3,0.3,0.4,0.5c0.1,0.2,0.2,0.3,0.3,0.5&#10;&#9;&#9;&#9;s0.1,0.4,0.2,0.6c0,0.2,0.1,0.4,0.1,0.6c0,0.8-0.3,1.6-0.9,2.1C58.6,104.3,57.8,104.7,57,104.7z" style="fill:#FF5576;"/>
	</g>
	<g>
		<path d="M74.5,107c-2,0-3.8-1.1-4.6-2.9l0-0.1c-0.9,0.7-2.1,0.8-3.2,0.3c-1.5-0.7-2.1-2.5-1.3-4&#10;&#9;&#9;&#9;c0.9-1.8,2.7-2.9,4.7-2.9c1.8,0,3.4,0.9,4.3,2.3l0.8-2.6c0.7-2.2,2.7-3.8,5-4c2.3-0.2,4.5,1,5.6,3l2,3.8c0.3,0.6,0.8,0.7,1.1,0.8&#10;&#9;&#9;&#9;c0.3,0,0.8,0,1.3-0.4c1.2-1.2,3.1-1.2,4.2,0c1.2,1.2,1.2,3.1,0,4.2c-1.7,1.7-4,2.5-6.4,2.1c-2.4-0.4-4.4-1.8-5.5-3.9l-1.8-3.3&#10;&#9;&#9;&#9;l-1.2,4c-0.6,2-2.4,3.5-4.5,3.6C74.8,107,74.7,107,74.5,107z" style="fill:#FF5576;"/>
	</g>
	<g>
		<path d="M86,62H42c-1.7,0-3-1.3-3-3s1.3-3,3-3h44c1.7,0,3,1.3,3,3S87.7,62,86,62z" style="fill:#E9EEF4;"/>
	</g>
	<g>
		<path d="M76,32H52c-1.7,0-3-1.3-3-3s1.3-3,3-3h24c1.7,0,3,1.3,3,3S77.7,32,76,32z" style="fill:#E9EEF4;"/>
	</g>
	<g>
		<path d="M71,77H42c-1.7,0-3-1.3-3-3s1.3-3,3-3h29c1.7,0,3,1.3,3,3S72.7,77,71,77z" style="fill:#E9EEF4;"/>
	</g>
	<g>
		<path d="M86,77c-0.2,0-0.4,0-0.6-0.1c-0.2,0-0.4-0.1-0.6-0.2c-0.2-0.1-0.3-0.2-0.5-0.3c-0.2-0.1-0.3-0.2-0.5-0.4&#10;&#9;&#9;&#9;c-0.1-0.1-0.3-0.3-0.4-0.5c-0.1-0.2-0.2-0.3-0.3-0.5c-0.1-0.2-0.1-0.4-0.2-0.6c0-0.2-0.1-0.4-0.1-0.6c0-0.8,0.3-1.6,0.9-2.1&#10;&#9;&#9;&#9;c1.1-1.1,3.1-1.1,4.2,0c0.6,0.6,0.9,1.3,0.9,2.1c0,0.2,0,0.4-0.1,0.6c0,0.2-0.1,0.4-0.2,0.6c-0.1,0.2-0.2,0.4-0.3,0.5&#10;&#9;&#9;&#9;c-0.1,0.2-0.2,0.3-0.4,0.5C87.6,76.7,86.8,77,86,77z" style="fill:#E9EEF4;"/>
	</g>
</g>
<g>
	<g>
		<path d="M96,6H32c-7.2,0-13,5.8-13,13v90c0,7.2,5.8,13,13,13h63.8c7.2,0,13-5.8,13-13l0.2-90c0-3.5-1.3-6.7-3.8-9.2&#10;&#9;&#9;&#9;S99.5,6,96,6z M102.8,109c0,3.9-3.1,7-7,7H32c-3.9,0-7-3.1-7-7V19c0-3.9,3.1-7,7-7h64c1.9,0,3.6,0.7,5,2.1c1.3,1.3,2,3.1,2,5&#10;&#9;&#9;&#9;L102.8,109z" style="fill:#444B54;"/>
	</g>
</g>
</svg>