<svg version="1.1" id="Layer_1" xmlns="http://www.w3.org/2000/svg" xmlns:xlink="http://www.w3.org/1999/xlink" x="0px" y="0px" viewBox="0 0 128 128" style="fill: rgb(0, 0, 0);" xml:space="preserve" width="100" height="100">

<g>
	<g>
		<g>
			<path d="M16,115c-1.7,0-3-1.3-3-3V86c0-1.7,1.3-3,3-3s3,1.3,3,3v26C19,113.7,17.7,115,16,115z" style="fill:#444B54;"/>
		</g>
		<g>
			<rect x="31" y="86" width="6" height="26" style="fill:#444B54;"/>
			<path d="M37,115h-6c-1.7,0-3-1.3-3-3V86c0-1.7,1.3-3,3-3h6c1.7,0,3,1.3,3,3v26C40,113.7,38.7,115,37,115z" style="fill:#444B54;"/>
		</g>
		<g>
			<path d="M52,115c-1.7,0-3-1.3-3-3V86c0-1.7,1.3-3,3-3s3,1.3,3,3v26C55,113.7,53.7,115,52,115z" style="fill:#444B54;"/>
		</g>
		<g>
			<path d="M67,115c-1.7,0-3-1.3-3-3V86c0-1.7,1.3-3,3-3s3,1.3,3,3v26C70,113.7,68.7,115,67,115z" style="fill:#444B54;"/>
		</g>
		<g>
			<rect x="82" y="86" width="6" height="26" style="fill:#444B54;"/>
			<path d="M88,115h-6c-1.7,0-3-1.3-3-3V86c0-1.7,1.3-3,3-3h6c1.7,0,3,1.3,3,3v26C91,113.7,89.7,115,88,115z" style="fill:#444B54;"/>
		</g>
		<g>
			<path d="M100,115c-1.7,0-3-1.3-3-3V86c0-1.7,1.3-3,3-3s3,1.3,3,3v26C103,113.7,101.7,115,100,115z" style="fill:#444B54;"/>
		</g>
		<g>
			<path d="M112,115c-1.7,0-3-1.3-3-3V86c0-1.7,1.3-3,3-3s3,1.3,3,3v26C115,113.7,113.7,115,112,115z" style="fill:#444B54;"/>
		</g>
	</g>
	<g>
		<g>
			<path d="M16,75c-1.7,0-3-1.3-3-3V16c0-1.7,1.3-3,3-3s3,1.3,3,3v56C19,73.7,17.7,75,16,75z" style="fill:#444B54;"/>
		</g>
		<g>
			<polyline points="31,72 31,16 37,16 37,72 &#9;&#9;&#9;" style="fill:#444B54;"/>
			<path d="M37,75c-1.7,0-3-1.3-3-3c0,1.7-1.3,3-3,3s-3-1.3-3-3V16c0-1.7,1.3-3,3-3h6c1.7,0,3,1.3,3,3v56&#10;&#9;&#9;&#9;&#9;C40,73.7,38.7,75,37,75z" style="fill:#444B54;"/>
		</g>
		<g>
			<path d="M52,75c-1.7,0-3-1.3-3-3V16c0-1.7,1.3-3,3-3s3,1.3,3,3v56C55,73.7,53.7,75,52,75z" style="fill:#444B54;"/>
		</g>
		<g>
			<path d="M67,75c-1.7,0-3-1.3-3-3V16c0-1.7,1.3-3,3-3s3,1.3,3,3v56C70,73.7,68.7,75,67,75z" style="fill:#444B54;"/>
		</g>
		<g>
			<polyline points="82,72 82,16 88,16 88,72 &#9;&#9;&#9;" style="fill:#444B54;"/>
			<path d="M88,75c-1.7,0-3-1.3-3-3c0,1.7-1.3,3-3,3s-3-1.3-3-3V16c0-1.7,1.3-3,3-3h6c1.7,0,3,1.3,3,3v56&#10;&#9;&#9;&#9;&#9;C91,73.7,89.7,75,88,75z" style="fill:#444B54;"/>
		</g>
		<g>
			<path d="M100,75c-1.7,0-3-1.3-3-3V16c0-1.7,1.3-3,3-3s3,1.3,3,3v56C103,73.7,101.7,75,100,75z" style="fill:#444B54;"/>
		</g>
		<g>
			<path d="M112,75c-1.7,0-3-1.3-3-3V16c0-1.7,1.3-3,3-3s3,1.3,3,3v56C115,73.7,113.7,75,112,75z" style="fill:#444B54;"/>
		</g>
	</g>
	<g>
		<path d="M124,75H4c-1.7,0-3-1.3-3-3s1.3-3,3-3h120c1.7,0,3,1.3,3,3S125.7,75,124,75z" style="fill:#FF5576;"/>
	</g>
</g>
</svg>