<svg xmlns="http://www.w3.org/2000/svg" xmlns:xlink="http://www.w3.org/1999/xlink" version="1.1" id="Слой_1" x="0px" y="0px" viewBox="0 0 128 128" style="fill: rgb(0, 0, 0);" xml:space="preserve" width="100" height="100">
<path style="fill:#F2E5AC;" d="M41.8,22.1v-4c0-5.1,4.1-9.2,9.2-9.2h42c2.4,0,4.8,1,6.5,2.7l13,13c1.7,1.7,2.7,4.1,2.7,6.5v65  c0,5.1-4.1,9.2-9.2,9.2H83.4L41.8,22.1"/>
<path style="fill:#D9CE9A;" d="M60,13.6H43c-0.3,0.5-0.5,0.9-0.7,1.5c-0.1,0.2-0.1,0.4-0.2,0.6c-0.2,0.8-0.3,1.6-0.3,2.5v3.9  l41.6,83.2h7.9V44.9c0-4.9-1.9-9.5-5.4-13L73,19C69.5,15.5,64.9,13.6,60,13.6"/>
<path style="fill:#454B54;" d="M106,108.3H83.4c-1.7,0-3-1.3-3-3s1.3-3,3-3H106c3.4,0,6.2-2.8,6.2-6.2v-65c0-1.6-0.6-3.2-1.8-4.4  l-13-13C96.2,12.6,94.7,12,93,12H51c-3.4,0-6.2,2.8-6.2,6.2v4c0,1.7-1.3,3-3,3s-3-1.3-3-3v-4C38.8,11.5,44.3,6,51,6h42  c3.2,0,6.3,1.3,8.6,3.6l13,13c2.3,2.3,3.6,5.4,3.6,8.6v65C118.2,102.8,112.7,108.3,106,108.3z"/>
<path style="fill:#FFFFFF;" d="M73,119H18c-5.1,0-9.2-4.1-9.2-9.2V31.9c0-5.1,4.1-9.2,9.2-9.2h42c2.4,0,4.8,1,6.5,2.7l13,13  c1.7,1.7,2.7,4.1,2.7,6.5v65C82.2,114.9,78.1,119,73,119z"/>
<path style="fill:#454B54;" d="M73,122H18c-6.7,0-12.2-5.5-12.2-12.2V31.9c0-6.7,5.5-12.2,12.2-12.2h42c3.2,0,6.3,1.3,8.6,3.6l13,13  c2.3,2.3,3.6,5.4,3.6,8.6v65C85.2,116.5,79.7,122,73,122z M18,25.8c-3.4,0-6.2,2.8-6.2,6.2v77.9c0,3.4,2.8,6.2,6.2,6.2h55  c3.4,0,6.2-2.8,6.2-6.2v-65c0-1.6-0.6-3.2-1.8-4.4l-13-13c-1.2-1.2-2.7-1.8-4.4-1.8L18,25.8L18,25.8z"/>
<path style="fill:#454B54;" d="M63.8,103.7H27.2c-1.7,0-3-1.3-3-3s1.3-3,3-3h36.7c1.7,0,3,1.3,3,3S65.5,103.7,63.8,103.7z"/>
<path style="fill:#454B54;" d="M63.8,89.9H27.2c-1.7,0-3-1.3-3-3s1.3-3,3-3h36.7c1.7,0,3,1.3,3,3S65.5,89.9,63.8,89.9z"/>
<path style="fill:#454B54;" d="M63.8,76.2H27.2c-1.7,0-3-1.3-3-3s1.3-3,3-3h36.7c1.7,0,3,1.3,3,3S65.5,76.2,63.8,76.2z"/>
</svg>