<svg xmlns="http://www.w3.org/2000/svg" viewBox="0 0 543.1 381.6"><title>in-transit</title><path d="M539.1,301.1V428.5H489.8c-7,26.9-31.1,46.9-60.1,46.9s-53.1-20-60-46.9H239.8c-7,26.9-31.1,46.9-60.1,46.9s-53.1-20-60-46.9H70.4V319.2h31.3v78.1h18.1c7-26.9,31.1-46.9,60-46.9s53.1,20,60.1,46.9H336V162.9H39.1V131.6H367.2v62.5H503.4l3.4,10.7,31.3,93.8Z" transform="translate(-39.1 -93.8)" style="fill:#e72678;opacity:0.15000000596046448;isolation:isolate"/><path d="M551,267.6v91.8L506.5,361c-5.3-9.4-14.3-26.6-33.6-26.2-17.8.3-29.8,15.2-35.1,24.6H410.4V187.5H524.2Z" transform="translate(-39.1 -93.8)" style="fill:#e72678;stroke:#000;stroke-miterlimit:10"/><path d="M581.3,260.7,550,167l-3.4-10.7H410.4V93.8H82.3V125H379.2V359.4H283c-7-26.9-31.1-46.9-60.1-46.9s-53.1,20-60,46.9H144.8V281.3H113.5V390.7h49.3c7,26.9,31.1,46.9,60,46.9s53.1-20,60.1-46.9H412.8c7,26.9,31.1,46.9,60,46.9s53.1-20,60.1-46.9h49.3V263.2ZM222.9,406.3A31.3,31.3,0,1,1,254.2,375,30.95,30.95,0,0,1,222.9,406.3Zm250,0A31,31,0,0,1,441.7,375a31.55,31.55,0,0,1,4.1-15.6,31.51,31.51,0,0,1,54.4,0,31.55,31.55,0,0,1,4.1,15.6A31.18,31.18,0,0,1,472.9,406.3ZM551,359.4H533c-7-26.9-31.1-46.9-60.1-46.9s-53.1,20-60,46.9h-2.5V187.5H524.2l26.9,80.1v91.8ZM97.9,156.3v31.3H238.5V156.3Zm15.6,62.5V250h93.8V218.7H113.5Z" transform="translate(-39.1 -93.8)" style="fill:#4f4f4f"/><rect x="74.4" y="125" width="93.8" height="31.3" style="fill:#666"/><rect x="74.4" y="125" width="93.8" height="31.3" style="fill:#999"/><rect x="58.8" y="62.5" width="140.6" height="31.3" style="fill:#999"/></svg>