<svg xmlns="http://www.w3.org/2000/svg" viewBox="0 0 705.15 187.91"><title>paypal_logo2</title><path d="M388.44,50.74H362a7.62,7.62,0,0,0-6.3,3.34l-36.42,53.64L303.89,56.18a7.63,7.63,0,0,0-7.3-5.44H270.64a4.58,4.58,0,0,0-4.33,6l29.07,85.32L268,180.69a4.57,4.57,0,0,0,3.73,7.22h26.37a7.65,7.65,0,0,0,6.27-3.28L392.2,57.92a4.57,4.57,0,0,0-3.76-7.18M212,101.86c-2.54,15-14.45,25.08-29.64,25.08-7.62,0-13.72-2.45-17.64-7.09s-5.35-11.15-4.12-18.44A29.39,29.39,0,0,1,190,76.14c7.46,0,13.51,2.47,17.51,7.15s5.61,11.31,4.45,18.57m36.61-51.12H222.29a4.58,4.58,0,0,0-4.52,3.86l-1.15,7.34-1.83-2.66c-5.69-8.25-18.37-11-31-11-29,0-53.81,22-58.63,52.84-2.51,15.39,1.05,30.09,9.78,40.35,8,9.43,19.45,13.35,33.08,13.35a50.29,50.29,0,0,0,36.36-15l-1.17,7.3a4.56,4.56,0,0,0,4.51,5.28h23.65a7.6,7.6,0,0,0,7.53-6.43L253.07,56a4.57,4.57,0,0,0-4.51-5.28m-157.62.63c-3,19.69-18,19.69-32.58,19.69H50.09L55.9,34.3a4.56,4.56,0,0,1,4.51-3.86h3.8c9.9,0,19.25,0,24.07,5.64,2.88,3.37,3.75,8.38,2.66,15.29M84.62,0H29.77a7.61,7.61,0,0,0-7.53,6.44L.06,147.08a4.56,4.56,0,0,0,4.51,5.28H30.76a7.63,7.63,0,0,0,7.53-6.43l6-37.94a7.61,7.61,0,0,1,7.52-6.44H69.15c36.13,0,57-17.48,62.44-52.14,2.45-15.15.09-27.06-7-35.39-7.8-9.17-21.62-14-40-14" style="fill:#eaeaea"/><path d="M670.72,3.86,648.21,147.08a4.59,4.59,0,0,0,4.52,5.29h22.64a7.63,7.63,0,0,0,7.53-6.44L705.09,5.29A4.57,4.57,0,0,0,700.57,0H675.24a4.58,4.58,0,0,0-4.52,3.86m-67.56,98c-2.54,15-14.44,25.08-29.64,25.08-7.62,0-13.72-2.45-17.64-7.09s-5.35-11.15-4.12-18.44A29.39,29.39,0,0,1,581.2,76.14c7.46,0,13.51,2.47,17.51,7.15s5.61,11.31,4.45,18.57m36.61-51.12H613.5A4.58,4.58,0,0,0,609,54.6l-1.15,7.34L606,59.28c-5.68-8.25-18.36-11-31-11-29,0-53.8,22-58.63,52.84-2.51,15.39,1.06,30.09,9.78,40.35,8,9.43,19.45,13.35,33.08,13.35a50.29,50.29,0,0,0,36.36-15l-1.17,7.3a4.57,4.57,0,0,0,4.52,5.28h23.64a7.62,7.62,0,0,0,7.54-6.43L644.29,56a4.57,4.57,0,0,0-4.52-5.28m-157.61.63c-3,19.69-18,19.69-32.58,19.69H441.3l5.81-36.76a4.57,4.57,0,0,1,4.51-3.86h3.8c9.9,0,19.25,0,24.07,5.64,2.88,3.37,3.75,8.38,2.67,15.29M475.83,0H421a7.63,7.63,0,0,0-7.54,6.44L391.27,147.08a4.57,4.57,0,0,0,4.51,5.28h28.15a5.33,5.33,0,0,0,5.26-4.5l6.3-39.87a7.61,7.61,0,0,1,7.52-6.44h17.36c36.13,0,57-17.48,62.43-52.14,2.45-15.15.1-27.06-7-35.39-7.8-9.17-21.62-14-40-14" style="fill:#fff"/></svg>